<svg width="256" height="54" viewBox="0 0 256 54" fill="none" xmlns="http://www.w3.org/2000/svg">
<path d="M180.716 41.7054C174.693 41.7054 170.177 38.4627 170.177 32.7438C170.177 27.1428 174.074 23.4284 180.983 23.0157L189.407 22.8125C189.407 20.6311 187.115 17.9741 182.864 17.9741C178.494 17.9741 176.613 20.4212 175.964 22.3079L170.059 19.301C171.889 14.9381 175.964 11.0469 183.05 11.0469C192.38 11.0469 196.808 17.1199 196.808 22.8388V41.7054H189.427V38.4627C187.951 40.7621 184.732 41.7054 180.716 41.7054ZM177.676 32.449C177.676 34.5125 179.389 35.8096 181.81 35.8096C185.766 35.8096 189.545 33.2155 189.545 29.4421L189.552 28.9815L181.455 29.0294C178.983 29.0331 177.676 30.3855 177.676 32.449Z" fill="white"/>
<path d="M119.629 41.6884V11.6103H127.01V14.8035C128.368 12.3272 131.374 11.0352 135.154 11.0352C139.169 11.0352 142.363 12.2093 144.253 14.9214C145.906 12.7989 148.892 11.0352 153.793 11.0352C160.702 11.0352 165.747 15.5699 165.747 21.5247V41.6884H158.366V23.8241C158.366 19.9918 155.82 17.9739 152.395 17.9739C148.675 17.9739 146.379 20.2276 146.379 23.8241V41.6884H138.997V23.8241C138.997 19.9918 136.451 17.9579 133.026 17.9579C129.306 17.9579 127.01 20.2276 127.01 23.8241V41.6884H119.629Z" fill="white"/>
<path d="M107.816 41.7054V11.6152H115.198V41.7054H107.816Z" fill="white"/>
<path d="M83.7617 11.6092V41.7057H91.0047V24.176C91.0047 20.6469 93.2645 17.9856 96.915 17.9856C98.7514 17.8748 100.513 18.7259 101.566 20.2324L101.789 20.5513L105.241 12.8127L104.919 12.6485C103.22 11.7839 100.954 11.0469 98.9963 11.0469C95.2879 11.0469 92.3374 12.8945 91.0047 15.3243V11.6092H83.7617Z" fill="white"/>
<path d="M48.6367 54.0004V11.61H55.7222V15.0624C57.4794 12.7419 61.1015 11.0431 65.1261 11.0431C73.0052 11.0431 79.6996 16.7603 79.6996 26.325C79.6996 35.3803 73.0618 41.7061 65.1261 41.7061C61.1015 41.7061 57.4228 39.8514 55.7222 37.531V54.0004H48.6367ZM55.9815 26.325C55.9815 31.079 59.0099 34.5555 64.0548 34.5555C69.1564 34.5555 72.1281 31.079 72.1281 26.325C72.1281 21.5143 69.1564 18.0379 64.0548 18.0379C59.0099 18.0379 55.9815 21.5143 55.9815 26.325Z" fill="white"/>
<path d="M201.242 11.6092V41.7057H208.485V24.176C208.485 20.6469 210.745 17.9856 214.395 17.9856C216.232 17.8748 217.994 18.7259 219.047 20.2324L219.269 20.5513L222.722 12.8127L222.399 12.6485C220.701 11.7839 218.434 11.0469 216.477 11.0469C212.768 11.0469 209.818 12.8945 208.485 15.3243V11.6092H201.242Z" fill="white"/>
<path d="M240.639 29.8934L233.254 11.6094L225.293 11.6094L236.657 39.6941L235.805 41.8412L230.887 53.995L238.845 53.9951L255.999 11.6094L248.038 11.6095L240.639 29.8934Z" fill="white"/>
<path d="M111.506 9.02673C109.014 9.02673 106.985 7.00603 106.985 4.51337C106.985 2.0207 109.014 -3.06099e-07 111.506 -1.9731e-07C113.999 -8.85221e-08 116.027 2.0207 116.027 4.51337C116.027 7.00603 113.999 9.02673 111.506 9.02673Z" fill="white"/>
<path d="M13.968 43.0024L20.8118 45.7632L25.9302 33.1149L25.9326 33.1169L33.52 14.3593L26.6762 11.5985L22.8925 20.9487L9.27739 9.54102L4.53281 15.1866L15.2297 24.1492L15.2318 24.1478L19.9858 28.1319L13.968 43.0024Z" fill="white"/>
<path d="M15.2508 33.0862L16.9594 28.8984L13.4261 25.9323L0 30.1883L2.23404 37.2125L15.2508 33.0862Z" fill="white"/>
<path d="M36.8234 32.6211L30.8761 27.638L27.97 34.824L32.0788 38.2666L36.8234 32.6211Z" fill="white"/>
</svg>
