<svg width="820" height="148" viewBox="0 0 820 148" fill="none" xmlns="http://www.w3.org/2000/svg">
<path d="M96.9875 127V76H106.888V88.7H107.388V127H96.9875ZM107.388 100.4L106.088 88.3C107.288 83.9667 109.354 80.6667 112.288 78.4C115.221 76.1333 118.721 75 122.788 75C124.321 75 125.388 75.1333 125.988 75.4V85.2C125.654 85.0667 125.188 85 124.588 85C123.988 84.9333 123.254 84.9 122.388 84.9C117.388 84.9 113.621 86.2 111.088 88.8C108.621 91.4 107.388 95.2667 107.388 100.4ZM134.39 127V76H144.79V127H134.39ZM133.89 66V54.3H145.39V66H133.89ZM159.39 127V76H169.29V88H169.79V127H159.39ZM193.79 127V93.7C193.79 90.2333 192.99 87.7 191.39 86.1C189.79 84.5 187.49 83.7 184.49 83.7C181.69 83.7 179.157 84.3667 176.89 85.7C174.69 86.9667 172.957 88.7667 171.69 91.1C170.423 93.3667 169.79 96.0667 169.79 99.2L168.49 87.3C170.157 83.5 172.657 80.5 175.99 78.3C179.39 76.1 183.19 75 187.39 75C192.457 75 196.49 76.4667 199.49 79.4C202.557 82.3333 204.09 86.2 204.09 91V127H193.79ZM228.19 127V93.7C228.19 90.2333 227.357 87.7 225.69 86.1C224.09 84.5 221.79 83.7 218.79 83.7C216.057 83.7 213.557 84.3667 211.29 85.7C209.09 86.9667 207.323 88.7667 205.99 91.1C204.723 93.3667 204.09 96.0667 204.09 99.2L201.99 87.3C203.723 83.5 206.323 80.5 209.79 78.3C213.323 76.1 217.257 75 221.59 75C226.723 75 230.823 76.5 233.89 79.5C236.957 82.4333 238.49 86.3667 238.49 91.3V127H228.19ZM283.47 127C283.137 125.733 282.904 124.333 282.77 122.8C282.704 121.267 282.67 119.4 282.67 117.2H282.17V92.9C282.17 89.6333 281.337 87.2 279.67 85.6C278.07 83.9333 275.504 83.1 271.97 83.1C268.57 83.1 265.837 83.7667 263.77 85.1C261.77 86.4333 260.604 88.3333 260.27 90.8H250.37C250.837 86 253.004 82.1667 256.87 79.3C260.737 76.4333 265.904 75 272.37 75C279.037 75 284.037 76.5667 287.37 79.7C290.704 82.7667 292.37 87.3 292.37 93.3V117.2C292.37 118.733 292.47 120.3 292.67 121.9C292.87 123.5 293.17 125.2 293.57 127H283.47ZM265.87 128C260.67 128 256.537 126.733 253.47 124.2C250.404 121.6 248.87 118.1 248.87 113.7C248.87 109.167 250.47 105.6 253.67 103C256.937 100.333 261.604 98.5333 267.67 97.6L284.47 94.9V102.2L269.27 104.6C265.87 105.133 263.304 106.033 261.57 107.3C259.904 108.567 259.07 110.4 259.07 112.8C259.07 115.133 259.837 116.9 261.37 118.1C262.97 119.233 265.27 119.8 268.27 119.8C272.27 119.8 275.57 118.833 278.17 116.9C280.837 114.967 282.17 112.533 282.17 109.6L283.47 117C282.27 120.533 280.137 123.267 277.07 125.2C274.004 127.067 270.27 128 265.87 128ZM306.46 127V76H316.36V88.7H316.86V127H306.46ZM316.86 100.4L315.56 88.3C316.76 83.9667 318.827 80.6667 321.76 78.4C324.693 76.1333 328.193 75 332.26 75C333.793 75 334.86 75.1333 335.46 75.4V85.2C335.127 85.0667 334.66 85 334.06 85C333.46 84.9333 332.727 84.9 331.86 84.9C326.86 84.9 323.093 86.2 320.56 88.8C318.093 91.4 316.86 95.2667 316.86 100.4ZM349.127 147.5L361.427 119.4L363.527 116.1L379.027 76H389.827L359.827 147.5H349.127ZM360.927 127L339.127 76H350.427L368.927 121.9L360.927 127ZM439.281 128C434.415 128 430.081 126.867 426.281 124.6C422.481 122.267 419.481 119.1 417.281 115.1C415.148 111.1 414.081 106.533 414.081 101.4C414.081 96.2667 415.148 91.7333 417.281 87.8C419.481 83.8 422.481 80.6667 426.281 78.4C430.081 76.1333 434.381 75 439.181 75C443.248 75 446.881 75.7667 450.081 77.3C453.281 78.8333 455.915 80.9667 457.981 83.7C460.048 86.4333 461.381 89.6667 461.981 93.4H452.181C451.515 90.4 450.048 88 447.781 86.2C445.581 84.4 442.781 83.5 439.381 83.5C436.448 83.5 433.881 84.2333 431.681 85.7C429.481 87.1667 427.781 89.2333 426.581 91.9C425.381 94.5667 424.781 97.7333 424.781 101.4C424.781 105 425.381 108.167 426.581 110.9C427.781 113.633 429.481 115.767 431.681 117.3C433.881 118.767 436.481 119.5 439.481 119.5C442.748 119.5 445.515 118.633 447.781 116.9C450.115 115.1 451.615 112.7 452.281 109.7H462.081C461.415 113.367 460.015 116.567 457.881 119.3C455.815 122.033 453.181 124.167 449.981 125.7C446.781 127.233 443.215 128 439.281 128ZM503.49 127C503.157 125.733 502.923 124.333 502.79 122.8C502.723 121.267 502.69 119.4 502.69 117.2H502.19V92.9C502.19 89.6333 501.357 87.2 499.69 85.6C498.09 83.9333 495.523 83.1 491.99 83.1C488.59 83.1 485.857 83.7667 483.79 85.1C481.79 86.4333 480.623 88.3333 480.29 90.8H470.39C470.857 86 473.023 82.1667 476.89 79.3C480.757 76.4333 485.923 75 492.39 75C499.057 75 504.057 76.5667 507.39 79.7C510.723 82.7667 512.39 87.3 512.39 93.3V117.2C512.39 118.733 512.49 120.3 512.69 121.9C512.89 123.5 513.19 125.2 513.59 127H503.49ZM485.89 128C480.69 128 476.557 126.733 473.49 124.2C470.423 121.6 468.89 118.1 468.89 113.7C468.89 109.167 470.49 105.6 473.69 103C476.957 100.333 481.623 98.5333 487.69 97.6L504.49 94.9V102.2L489.29 104.6C485.89 105.133 483.323 106.033 481.59 107.3C479.923 108.567 479.09 110.4 479.09 112.8C479.09 115.133 479.857 116.9 481.39 118.1C482.99 119.233 485.29 119.8 488.29 119.8C492.29 119.8 495.59 118.833 498.19 116.9C500.857 114.967 502.19 112.533 502.19 109.6L503.49 117C502.29 120.533 500.157 123.267 497.09 125.2C494.023 127.067 490.29 128 485.89 128ZM526.48 127V76H536.38V88.7H536.88V127H526.48ZM536.88 100.4L535.58 88.3C536.78 83.9667 538.846 80.6667 541.78 78.4C544.713 76.1333 548.213 75 552.28 75C553.813 75 554.88 75.1333 555.48 75.4V85.2C555.146 85.0667 554.68 85 554.08 85C553.48 84.9333 552.746 84.9 551.88 84.9C546.88 84.9 543.113 86.2 540.58 88.8C538.113 91.4 536.88 95.2667 536.88 100.4ZM585.296 128C580.163 128 575.629 126.867 571.696 124.6C567.829 122.333 564.796 119.2 562.596 115.2C560.396 111.2 559.296 106.6 559.296 101.4C559.296 96.1333 560.363 91.5333 562.496 87.6C564.696 83.6 567.763 80.5 571.696 78.3C575.629 76.1 580.129 75 585.196 75C590.129 75 594.396 76.0667 597.996 78.2C601.663 80.2667 604.463 83.1667 606.396 86.9C608.396 90.6333 609.396 95.0667 609.396 100.2C609.396 101 609.363 101.767 609.296 102.5C609.296 103.167 609.229 103.867 609.096 104.6H566.296V96.8H601.796L599.196 99.9C599.196 94.4333 597.963 90.2667 595.496 87.4C593.029 84.5333 589.596 83.1 585.196 83.1C580.463 83.1 576.696 84.7333 573.896 88C571.163 91.2 569.796 95.6667 569.796 101.4C569.796 107.2 571.163 111.733 573.896 115C576.696 118.267 580.563 119.9 585.496 119.9C588.496 119.9 591.096 119.3 593.296 118.1C595.496 116.833 597.129 115 598.196 112.6H607.996C606.329 117.4 603.496 121.167 599.496 123.9C595.563 126.633 590.829 128 585.296 128ZM676.561 127V115.3L677.561 115.6C676.494 119.4 674.294 122.433 670.961 124.7C667.628 126.9 663.628 128 658.961 128C654.361 128 650.328 126.9 646.861 124.7C643.461 122.5 640.794 119.433 638.861 115.5C636.994 111.567 636.061 106.967 636.061 101.7C636.061 96.3667 637.028 91.7 638.961 87.7C640.894 83.7 643.594 80.6 647.061 78.4C650.528 76.2 654.594 75.1 659.261 75.1C664.128 75.1 668.128 76.2667 671.261 78.6C674.461 80.8667 676.561 84.0667 677.561 88.2L676.161 88.4V55H686.461V127H676.561ZM661.561 119.3C666.161 119.3 669.794 117.733 672.461 114.6C675.128 111.4 676.461 107 676.461 101.4C676.461 95.9333 675.094 91.6333 672.361 88.5C669.694 85.3 666.061 83.7 661.461 83.7C656.928 83.7 653.328 85.3 650.661 88.5C648.061 91.6333 646.761 96.0333 646.761 101.7C646.761 107.233 648.061 111.567 650.661 114.7C653.328 117.767 656.961 119.3 661.561 119.3ZM732.689 127C732.356 125.733 732.122 124.333 731.989 122.8C731.922 121.267 731.889 119.4 731.889 117.2H731.389V92.9C731.389 89.6333 730.556 87.2 728.889 85.6C727.289 83.9333 724.722 83.1 721.189 83.1C717.789 83.1 715.056 83.7667 712.989 85.1C710.989 86.4333 709.822 88.3333 709.489 90.8H699.589C700.056 86 702.222 82.1667 706.089 79.3C709.956 76.4333 715.122 75 721.589 75C728.256 75 733.256 76.5667 736.589 79.7C739.922 82.7667 741.589 87.3 741.589 93.3V117.2C741.589 118.733 741.689 120.3 741.889 121.9C742.089 123.5 742.389 125.2 742.789 127H732.689ZM715.089 128C709.889 128 705.756 126.733 702.689 124.2C699.622 121.6 698.089 118.1 698.089 113.7C698.089 109.167 699.689 105.6 702.889 103C706.156 100.333 710.822 98.5333 716.889 97.6L733.689 94.9V102.2L718.489 104.6C715.089 105.133 712.522 106.033 710.789 107.3C709.122 108.567 708.289 110.4 708.289 112.8C708.289 115.133 709.056 116.9 710.589 118.1C712.189 119.233 714.489 119.8 717.489 119.8C721.489 119.8 724.789 118.833 727.389 116.9C730.056 114.967 731.389 112.533 731.389 109.6L732.689 117C731.489 120.533 729.356 123.267 726.289 125.2C723.222 127.067 719.489 128 715.089 128ZM756.842 147.5L769.142 119.4L771.242 116.1L786.742 76H797.542L767.542 147.5H756.842ZM768.642 127L746.842 76H758.142L776.642 121.9L768.642 127Z" fill="white"/>
<path d="M31.9995 137.192C31.8288 137.192 31.6155 137.192 31.3595 137.192C31.1035 137.192 30.8902 137.149 30.7195 137.064C28.7568 136.381 27.7755 133.821 27.7755 129.384C27.7755 127.933 27.9035 126.312 28.1595 124.52C28.5008 119.827 29.6102 114.792 31.4875 109.416C33.2795 104.04 35.4982 98.536 38.1435 92.904C40.8742 87.272 43.8182 81.5973 46.9755 75.88C48.5115 72.9787 50.0475 70.12 51.5835 67.304C53.2048 64.4027 54.8262 61.544 56.4475 58.728C59.0928 54.0347 61.6528 49.4267 64.1275 44.904C66.6022 40.3813 68.7782 36.0293 70.6555 31.848C70.2288 32.616 69.8022 33.384 69.3755 34.152C67.9248 36.7973 66.4315 39.4853 64.8955 42.216C63.3595 44.9467 61.9942 47.1653 60.7995 48.872C56.1062 56.1253 51.3275 63.1653 46.4635 69.992C41.5995 76.7333 35.8822 82.4507 29.3115 87.144C26.6662 88.8507 23.5088 90.3867 19.8395 91.752C16.1702 93.032 12.8848 93.672 9.9835 93.672C6.82617 93.672 4.39417 92.648 2.6875 90.6C0.8955 88.552 -0.000500202 85.9493 -0.000500202 82.792C-0.000500202 79.976 0.682167 77.16 2.0475 74.344C3.0715 72.1253 4.82083 69.5227 7.2955 66.536C9.77017 63.5493 12.7568 60.6053 16.2555 57.704C19.7542 54.7173 23.4235 52.2853 27.2635 50.408C27.5195 50.2373 27.8182 50.152 28.1595 50.152C28.4155 50.152 28.5862 50.28 28.6715 50.536C28.7568 50.792 28.6715 51.1333 28.4155 51.56C27.9888 52.072 27.5195 52.5413 27.0075 52.968C17.7915 61.672 11.8182 70.248 9.0875 78.696C7.97817 81.6827 7.4235 84.1573 7.4235 86.12C7.4235 88.5947 8.27683 89.832 9.9835 89.832C11.4342 89.832 13.2262 89.32 15.3595 88.296C17.4928 87.272 19.5835 86.12 21.6315 84.84C23.7648 83.4747 25.4715 82.28 26.7515 81.256C28.0315 80.1467 29.3542 78.952 30.7195 77.672C32.1702 76.3067 33.6208 74.8133 35.0715 73.192C37.8875 70.12 40.6608 66.8773 43.3915 63.464C46.1222 60.0507 48.7675 56.552 51.3275 52.968L58.4955 42.728C60.7995 39.4853 62.8902 36.5413 64.7675 33.896C66.7302 31.2507 68.3942 29.0747 69.7595 27.368C70.4422 26.4293 71.2528 25.4907 72.1915 24.552C73.1302 23.6133 74.3675 23.144 75.9035 23.144C77.8662 23.144 79.1888 23.6987 79.8715 24.808C80.6395 25.832 81.0235 27.0693 81.0235 28.52C81.0235 30.4827 80.5542 32.1893 79.6155 33.64C78.5915 35.6027 77.4822 37.6933 76.2875 39.912C75.1782 42.0453 73.8982 44.3493 72.4475 46.824C69.7168 51.6027 66.8155 56.6373 63.7435 61.928C60.7568 67.1333 57.7702 72.5093 54.7835 78.056C53.2475 80.7867 51.7542 83.5173 50.3035 86.248C48.9382 88.9787 47.5728 91.624 46.2075 94.184C43.5622 99.4747 41.3008 104.552 39.4235 109.416C37.5462 114.28 36.1808 118.717 35.3275 122.728C34.9862 124.264 34.6875 125.672 34.4315 126.952C34.2608 128.232 34.1328 129.427 34.0475 130.536L33.9195 133.224C33.8342 133.224 33.9622 132.968 34.3035 132.456C34.7302 131.944 35.0288 131.517 35.1995 131.176C36.8208 128.104 39.1675 122.941 42.2395 115.688L46.8475 104.68C48.5542 100.755 50.2182 96.8293 51.8395 92.904C53.5462 88.8933 55.2102 85.096 56.8315 81.512C57.8555 79.208 59.1355 76.4773 60.6715 73.32C62.2075 70.1627 63.9142 66.8773 65.7915 63.464C67.7542 59.9653 69.7595 56.5947 71.8075 53.352C73.8555 50.1093 75.8182 47.2507 77.6955 44.776C83.3275 37.096 88.7462 31.208 93.9515 27.112C99.1568 23.016 104.96 20.6693 111.36 20.072C111.786 20.072 112.17 20.072 112.512 20.072C112.853 19.9867 113.194 19.944 113.536 19.944C118.912 19.944 123.264 21.6933 126.592 25.192C130.005 28.6907 131.712 33.384 131.712 39.272C131.712 43.5387 130.474 47.9333 128 52.456C125.61 56.8933 122.453 61.16 118.528 65.256C114.688 69.352 110.549 73.0213 106.112 76.264C100.394 80.1893 94.6342 83.3467 88.8315 85.736C83.0288 88.04 77.5248 89.448 72.3195 89.96C71.5515 90.0453 70.8262 90.1307 70.1435 90.216C69.5462 90.216 68.9062 90.216 68.2235 90.216C66.7728 90.216 65.4502 90.088 64.2555 89.832C62.1222 89.32 60.7142 88.808 60.0315 88.296C59.6048 88.04 59.2635 87.784 59.0075 87.528L57.5995 91.624L51.3275 109.672C50.6448 111.635 49.9195 113.555 49.1515 115.432C48.3835 117.309 47.6155 119.144 46.8475 120.936C43.1782 129.128 39.8502 134.077 36.8635 135.784C35.4128 136.723 33.7915 137.192 31.9995 137.192ZM60.9275 86.12C61.7808 86.5467 63.0608 86.76 64.7675 86.76C65.6208 86.76 66.5595 86.7173 67.5835 86.632C68.6075 86.4613 69.7168 86.3333 70.9115 86.248C74.2395 85.9067 77.7382 84.84 81.4075 83.048C85.0768 81.1707 88.7035 78.952 92.2875 76.392C95.8715 73.832 99.1568 71.272 102.144 68.712C103.168 67.8587 104.533 66.4933 106.24 64.616C107.946 62.7387 109.738 60.5627 111.616 58.088C113.493 55.6133 115.242 53.096 116.864 50.536C118.57 47.8907 119.978 45.416 121.088 43.112C123.136 39.016 124.16 35.56 124.16 32.744C124.16 27.368 121.216 24.68 115.328 24.68C113.194 24.68 110.762 25.064 108.032 25.832C104.789 26.856 101.632 28.392 98.5595 30.44C95.4875 32.488 92.7568 34.8773 90.3675 37.608C84.3088 44.4347 78.9328 51.3467 74.2395 58.344C69.6315 65.3413 65.5782 72.4667 62.0795 79.72C61.2262 81.3413 60.3728 83.3893 59.5195 85.864H59.6475C59.8182 85.864 59.9888 85.9067 60.1595 85.992C60.4155 85.992 60.6715 86.0347 60.9275 86.12Z" fill="white"/>
</svg>
