<svg width="1091" height="145" viewBox="0 0 1091 145" fill="none" xmlns="http://www.w3.org/2000/svg">
<path d="M96.9875 124V73H106.888V85.7H107.388V124H96.9875ZM107.388 97.4L106.088 85.3C107.288 80.9667 109.354 77.6667 112.288 75.4C115.221 73.1333 118.721 72 122.788 72C124.321 72 125.388 72.1333 125.988 72.4V82.2C125.654 82.0667 125.188 82 124.588 82C123.988 81.9333 123.254 81.9 122.388 81.9C117.388 81.9 113.621 83.2 111.088 85.8C108.621 88.4 107.388 92.2667 107.388 97.4ZM134.39 124V73H144.79V124H134.39ZM133.89 63V51.3H145.39V63H133.89ZM159.39 124V73H169.29V85H169.79V124H159.39ZM193.79 124V90.7C193.79 87.2333 192.99 84.7 191.39 83.1C189.79 81.5 187.49 80.7 184.49 80.7C181.69 80.7 179.157 81.3667 176.89 82.7C174.69 83.9667 172.957 85.7667 171.69 88.1C170.423 90.3667 169.79 93.0667 169.79 96.2L168.49 84.3C170.157 80.5 172.657 77.5 175.99 75.3C179.39 73.1 183.19 72 187.39 72C192.457 72 196.49 73.4667 199.49 76.4C202.557 79.3333 204.09 83.2 204.09 88V124H193.79ZM228.19 124V90.7C228.19 87.2333 227.357 84.7 225.69 83.1C224.09 81.5 221.79 80.7 218.79 80.7C216.057 80.7 213.557 81.3667 211.29 82.7C209.09 83.9667 207.323 85.7667 205.99 88.1C204.723 90.3667 204.09 93.0667 204.09 96.2L201.99 84.3C203.723 80.5 206.323 77.5 209.79 75.3C213.323 73.1 217.257 72 221.59 72C226.723 72 230.823 73.5 233.89 76.5C236.957 79.4333 238.49 83.3667 238.49 88.3V124H228.19ZM283.47 124C283.137 122.733 282.904 121.333 282.77 119.8C282.704 118.267 282.67 116.4 282.67 114.2H282.17V89.9C282.17 86.6333 281.337 84.2 279.67 82.6C278.07 80.9333 275.504 80.1 271.97 80.1C268.57 80.1 265.837 80.7667 263.77 82.1C261.77 83.4333 260.604 85.3333 260.27 87.8H250.37C250.837 83 253.004 79.1667 256.87 76.3C260.737 73.4333 265.904 72 272.37 72C279.037 72 284.037 73.5667 287.37 76.7C290.704 79.7667 292.37 84.3 292.37 90.3V114.2C292.37 115.733 292.47 117.3 292.67 118.9C292.87 120.5 293.17 122.2 293.57 124H283.47ZM265.87 125C260.67 125 256.537 123.733 253.47 121.2C250.404 118.6 248.87 115.1 248.87 110.7C248.87 106.167 250.47 102.6 253.67 100C256.937 97.3333 261.604 95.5333 267.67 94.6L284.47 91.9V99.2L269.27 101.6C265.87 102.133 263.304 103.033 261.57 104.3C259.904 105.567 259.07 107.4 259.07 109.8C259.07 112.133 259.837 113.9 261.37 115.1C262.97 116.233 265.27 116.8 268.27 116.8C272.27 116.8 275.57 115.833 278.17 113.9C280.837 111.967 282.17 109.533 282.17 106.6L283.47 114C282.27 117.533 280.137 120.267 277.07 122.2C274.004 124.067 270.27 125 265.87 125ZM306.46 124V73H316.36V85.7H316.86V124H306.46ZM316.86 97.4L315.56 85.3C316.76 80.9667 318.827 77.6667 321.76 75.4C324.693 73.1333 328.193 72 332.26 72C333.793 72 334.86 72.1333 335.46 72.4V82.2C335.127 82.0667 334.66 82 334.06 82C333.46 81.9333 332.727 81.9 331.86 81.9C326.86 81.9 323.093 83.2 320.56 85.8C318.093 88.4 316.86 92.2667 316.86 97.4ZM349.127 144.5L361.427 116.4L363.527 113.1L379.027 73H389.827L359.827 144.5H349.127ZM360.927 124L339.127 73H350.427L368.927 118.9L360.927 124ZM439.281 125C434.415 125 430.081 123.867 426.281 121.6C422.481 119.267 419.481 116.1 417.281 112.1C415.148 108.1 414.081 103.533 414.081 98.4C414.081 93.2667 415.148 88.7333 417.281 84.8C419.481 80.8 422.481 77.6667 426.281 75.4C430.081 73.1333 434.381 72 439.181 72C443.248 72 446.881 72.7667 450.081 74.3C453.281 75.8333 455.915 77.9667 457.981 80.7C460.048 83.4333 461.381 86.6667 461.981 90.4H452.181C451.515 87.4 450.048 85 447.781 83.2C445.581 81.4 442.781 80.5 439.381 80.5C436.448 80.5 433.881 81.2333 431.681 82.7C429.481 84.1667 427.781 86.2333 426.581 88.9C425.381 91.5667 424.781 94.7333 424.781 98.4C424.781 102 425.381 105.167 426.581 107.9C427.781 110.633 429.481 112.767 431.681 114.3C433.881 115.767 436.481 116.5 439.481 116.5C442.748 116.5 445.515 115.633 447.781 113.9C450.115 112.1 451.615 109.7 452.281 106.7H462.081C461.415 110.367 460.015 113.567 457.881 116.3C455.815 119.033 453.181 121.167 449.981 122.7C446.781 124.233 443.215 125 439.281 125ZM503.49 124C503.157 122.733 502.923 121.333 502.79 119.8C502.723 118.267 502.69 116.4 502.69 114.2H502.19V89.9C502.19 86.6333 501.357 84.2 499.69 82.6C498.09 80.9333 495.523 80.1 491.99 80.1C488.59 80.1 485.857 80.7667 483.79 82.1C481.79 83.4333 480.623 85.3333 480.29 87.8H470.39C470.857 83 473.023 79.1667 476.89 76.3C480.757 73.4333 485.923 72 492.39 72C499.057 72 504.057 73.5667 507.39 76.7C510.723 79.7667 512.39 84.3 512.39 90.3V114.2C512.39 115.733 512.49 117.3 512.69 118.9C512.89 120.5 513.19 122.2 513.59 124H503.49ZM485.89 125C480.69 125 476.557 123.733 473.49 121.2C470.423 118.6 468.89 115.1 468.89 110.7C468.89 106.167 470.49 102.6 473.69 100C476.957 97.3333 481.623 95.5333 487.69 94.6L504.49 91.9V99.2L489.29 101.6C485.89 102.133 483.323 103.033 481.59 104.3C479.923 105.567 479.09 107.4 479.09 109.8C479.09 112.133 479.857 113.9 481.39 115.1C482.99 116.233 485.29 116.8 488.29 116.8C492.29 116.8 495.59 115.833 498.19 113.9C500.857 111.967 502.19 109.533 502.19 106.6L503.49 114C502.29 117.533 500.157 120.267 497.09 122.2C494.023 124.067 490.29 125 485.89 125ZM526.48 124V73H536.38V85.7H536.88V124H526.48ZM536.88 97.4L535.58 85.3C536.78 80.9667 538.846 77.6667 541.78 75.4C544.713 73.1333 548.213 72 552.28 72C553.813 72 554.88 72.1333 555.48 72.4V82.2C555.146 82.0667 554.68 82 554.08 82C553.48 81.9333 552.746 81.9 551.88 81.9C546.88 81.9 543.113 83.2 540.58 85.8C538.113 88.4 536.88 92.2667 536.88 97.4ZM585.296 125C580.163 125 575.629 123.867 571.696 121.6C567.829 119.333 564.796 116.2 562.596 112.2C560.396 108.2 559.296 103.6 559.296 98.4C559.296 93.1333 560.363 88.5333 562.496 84.6C564.696 80.6 567.763 77.5 571.696 75.3C575.629 73.1 580.129 72 585.196 72C590.129 72 594.396 73.0667 597.996 75.2C601.663 77.2667 604.463 80.1667 606.396 83.9C608.396 87.6333 609.396 92.0667 609.396 97.2C609.396 98 609.363 98.7667 609.296 99.5C609.296 100.167 609.229 100.867 609.096 101.6H566.296V93.8H601.796L599.196 96.9C599.196 91.4333 597.963 87.2667 595.496 84.4C593.029 81.5333 589.596 80.1 585.196 80.1C580.463 80.1 576.696 81.7333 573.896 85C571.163 88.2 569.796 92.6667 569.796 98.4C569.796 104.2 571.163 108.733 573.896 112C576.696 115.267 580.563 116.9 585.496 116.9C588.496 116.9 591.096 116.3 593.296 115.1C595.496 113.833 597.129 112 598.196 109.6H607.996C606.329 114.4 603.496 118.167 599.496 120.9C595.563 123.633 590.829 125 585.296 125ZM676.561 124V112.3L677.561 112.6C676.494 116.4 674.294 119.433 670.961 121.7C667.628 123.9 663.628 125 658.961 125C654.361 125 650.328 123.9 646.861 121.7C643.461 119.5 640.794 116.433 638.861 112.5C636.994 108.567 636.061 103.967 636.061 98.7C636.061 93.3667 637.028 88.7 638.961 84.7C640.894 80.7 643.594 77.6 647.061 75.4C650.528 73.2 654.594 72.1 659.261 72.1C664.128 72.1 668.128 73.2667 671.261 75.6C674.461 77.8667 676.561 81.0667 677.561 85.2L676.161 85.4V52H686.461V124H676.561ZM661.561 116.3C666.161 116.3 669.794 114.733 672.461 111.6C675.128 108.4 676.461 104 676.461 98.4C676.461 92.9333 675.094 88.6333 672.361 85.5C669.694 82.3 666.061 80.7 661.461 80.7C656.928 80.7 653.328 82.3 650.661 85.5C648.061 88.6333 646.761 93.0333 646.761 98.7C646.761 104.233 648.061 108.567 650.661 111.7C653.328 114.767 656.961 116.3 661.561 116.3ZM732.689 124C732.356 122.733 732.122 121.333 731.989 119.8C731.922 118.267 731.889 116.4 731.889 114.2H731.389V89.9C731.389 86.6333 730.556 84.2 728.889 82.6C727.289 80.9333 724.722 80.1 721.189 80.1C717.789 80.1 715.056 80.7667 712.989 82.1C710.989 83.4333 709.822 85.3333 709.489 87.8H699.589C700.056 83 702.222 79.1667 706.089 76.3C709.956 73.4333 715.122 72 721.589 72C728.256 72 733.256 73.5667 736.589 76.7C739.922 79.7667 741.589 84.3 741.589 90.3V114.2C741.589 115.733 741.689 117.3 741.889 118.9C742.089 120.5 742.389 122.2 742.789 124H732.689ZM715.089 125C709.889 125 705.756 123.733 702.689 121.2C699.622 118.6 698.089 115.1 698.089 110.7C698.089 106.167 699.689 102.6 702.889 100C706.156 97.3333 710.822 95.5333 716.889 94.6L733.689 91.9V99.2L718.489 101.6C715.089 102.133 712.522 103.033 710.789 104.3C709.122 105.567 708.289 107.4 708.289 109.8C708.289 112.133 709.056 113.9 710.589 115.1C712.189 116.233 714.489 116.8 717.489 116.8C721.489 116.8 724.789 115.833 727.389 113.9C730.056 111.967 731.389 109.533 731.389 106.6L732.689 114C731.489 117.533 729.356 120.267 726.289 122.2C723.222 124.067 719.489 125 715.089 125ZM756.842 144.5L769.142 116.4L771.242 113.1L786.742 73H797.542L767.542 144.5H756.842ZM768.642 124L746.842 73H758.142L776.642 118.9L768.642 124ZM824.516 133.1V68.7H829.416V133.1H824.516ZM866.277 124V119.1C871.317 114.947 875.517 111.307 878.877 108.18C882.283 105.053 884.99 102.277 886.997 99.85C889.05 97.4233 890.497 95.2067 891.337 93.2C892.223 91.1467 892.667 89.14 892.667 87.18C892.667 84.2867 891.803 82.0233 890.077 80.39C888.35 78.7567 885.97 77.94 882.937 77.94C879.81 77.94 877.29 78.8267 875.377 80.6C873.463 82.3733 872.297 84.9167 871.877 88.23H865.857C866.323 83.6567 868.073 79.97 871.107 77.17C874.187 74.3233 878.27 72.9 883.357 72.9C888.07 72.9 891.827 74.16 894.627 76.68C897.427 79.2 898.827 82.6533 898.827 87.04C898.827 89.42 898.36 91.8 897.427 94.18C896.54 96.56 895.047 99.0567 892.947 101.67C890.893 104.283 888.163 107.177 884.757 110.35C881.397 113.477 877.22 117.023 872.227 120.99L870.897 118.96H899.667V124H866.277ZM925.888 124.7C921.921 124.7 918.445 123.603 915.458 121.41C912.518 119.17 910.208 116.09 908.528 112.17C906.895 108.203 906.078 103.677 906.078 98.59C906.078 93.5033 906.895 89.0467 908.528 85.22C910.161 81.3467 912.471 78.3367 915.458 76.19C918.445 73.9967 921.921 72.9 925.888 72.9C929.855 72.9 933.308 73.9967 936.248 76.19C939.235 78.3367 941.545 81.3467 943.178 85.22C944.858 89.0467 945.698 93.5033 945.698 98.59C945.698 103.723 944.858 108.25 943.178 112.17C941.545 116.09 939.235 119.17 936.248 121.41C933.308 123.603 929.855 124.7 925.888 124.7ZM925.888 119.66C928.735 119.66 931.161 118.82 933.168 117.14C935.175 115.413 936.715 112.987 937.788 109.86C938.861 106.687 939.398 102.907 939.398 98.52C939.398 94.18 938.861 90.47 937.788 87.39C936.761 84.31 935.245 81.9767 933.238 80.39C931.231 78.7567 928.781 77.94 925.888 77.94C922.995 77.94 920.545 78.7567 918.538 80.39C916.531 82.0233 914.991 84.38 913.918 87.46C912.891 90.4933 912.378 94.18 912.378 98.52C912.378 102.907 912.915 106.687 913.988 109.86C915.061 113.033 916.601 115.46 918.608 117.14C920.615 118.82 923.041 119.66 925.888 119.66ZM951.589 124V119.1C956.629 114.947 960.829 111.307 964.189 108.18C967.596 105.053 970.302 102.277 972.309 99.85C974.362 97.4233 975.809 95.2067 976.649 93.2C977.536 91.1467 977.979 89.14 977.979 87.18C977.979 84.2867 977.116 82.0233 975.389 80.39C973.662 78.7567 971.282 77.94 968.249 77.94C965.122 77.94 962.602 78.8267 960.689 80.6C958.776 82.3733 957.609 84.9167 957.189 88.23H951.169C951.636 83.6567 953.386 79.97 956.419 77.17C959.499 74.3233 963.582 72.9 968.669 72.9C973.382 72.9 977.139 74.16 979.939 76.68C982.739 79.2 984.139 82.6533 984.139 87.04C984.139 89.42 983.672 91.8 982.739 94.18C981.852 96.56 980.359 99.0567 978.259 101.67C976.206 104.283 973.476 107.177 970.069 110.35C966.709 113.477 962.532 117.023 957.539 120.99L956.209 118.96H984.979V124H951.589ZM1009.87 124.7C1003.94 124.7 999.371 122.553 996.151 118.26C992.977 113.92 991.391 107.667 991.391 99.5C991.391 93.8533 992.137 89.0467 993.631 85.08C995.171 81.1133 997.364 78.1033 1000.21 76.05C1003.06 73.95 1006.44 72.9 1010.36 72.9C1014.65 72.9 1018.2 74.1367 1021 76.61C1023.8 79.0833 1025.5 82.49 1026.11 86.83H1019.95C1019.53 83.9367 1018.46 81.7433 1016.73 80.25C1015.05 78.71 1012.9 77.94 1010.29 77.94C1006.14 77.94 1002.99 79.7133 1000.84 83.26C998.741 86.8067 997.691 92.1267 997.691 99.22V103.77L996.081 103.14C996.501 100.947 997.434 99.0333 998.881 97.4C1000.33 95.7667 1002.12 94.5067 1004.27 93.62C1006.42 92.6867 1008.73 92.22 1011.2 92.22C1014.37 92.22 1017.13 92.92 1019.46 94.32C1021.84 95.6733 1023.68 97.5867 1024.99 100.06C1026.34 102.487 1027.02 105.333 1027.02 108.6C1027.02 111.82 1026.3 114.643 1024.85 117.07C1023.4 119.497 1021.4 121.387 1018.83 122.74C1016.26 124.047 1013.28 124.7 1009.87 124.7ZM1010.08 119.66C1013.25 119.66 1015.82 118.657 1017.78 116.65C1019.74 114.643 1020.72 111.937 1020.72 108.53C1020.72 104.983 1019.76 102.207 1017.85 100.2C1015.98 98.1467 1013.35 97.12 1009.94 97.12C1006.67 97.12 1003.94 98.0767 1001.75 99.99C999.604 101.903 998.531 104.54 998.531 107.9C998.531 110.233 999.021 112.287 1000 114.06C1001.03 115.833 1002.4 117.21 1004.13 118.19C1005.9 119.17 1007.89 119.66 1010.08 119.66Z" fill="white"/>
<path d="M31.9995 134.192C31.8288 134.192 31.6155 134.192 31.3595 134.192C31.1035 134.192 30.8902 134.149 30.7195 134.064C28.7568 133.381 27.7755 130.821 27.7755 126.384C27.7755 124.933 27.9035 123.312 28.1595 121.52C28.5008 116.827 29.6102 111.792 31.4875 106.416C33.2795 101.04 35.4982 95.536 38.1435 89.904C40.8742 84.272 43.8182 78.5973 46.9755 72.88C48.5115 69.9787 50.0475 67.12 51.5835 64.304C53.2048 61.4027 54.8262 58.544 56.4475 55.728C59.0928 51.0347 61.6528 46.4267 64.1275 41.904C66.6022 37.3813 68.7782 33.0293 70.6555 28.848C70.2288 29.616 69.8022 30.384 69.3755 31.152C67.9248 33.7973 66.4315 36.4853 64.8955 39.216C63.3595 41.9467 61.9942 44.1653 60.7995 45.872C56.1062 53.1253 51.3275 60.1653 46.4635 66.992C41.5995 73.7333 35.8822 79.4507 29.3115 84.144C26.6662 85.8507 23.5088 87.3867 19.8395 88.752C16.1702 90.032 12.8848 90.672 9.9835 90.672C6.82617 90.672 4.39417 89.648 2.6875 87.6C0.8955 85.552 -0.000500202 82.9493 -0.000500202 79.792C-0.000500202 76.976 0.682167 74.16 2.0475 71.344C3.0715 69.1253 4.82083 66.5227 7.2955 63.536C9.77017 60.5493 12.7568 57.6053 16.2555 54.704C19.7542 51.7173 23.4235 49.2853 27.2635 47.408C27.5195 47.2373 27.8182 47.152 28.1595 47.152C28.4155 47.152 28.5862 47.28 28.6715 47.536C28.7568 47.792 28.6715 48.1333 28.4155 48.56C27.9888 49.072 27.5195 49.5413 27.0075 49.968C17.7915 58.672 11.8182 67.248 9.0875 75.696C7.97817 78.6827 7.4235 81.1573 7.4235 83.12C7.4235 85.5947 8.27683 86.832 9.9835 86.832C11.4342 86.832 13.2262 86.32 15.3595 85.296C17.4928 84.272 19.5835 83.12 21.6315 81.84C23.7648 80.4747 25.4715 79.28 26.7515 78.256C28.0315 77.1467 29.3542 75.952 30.7195 74.672C32.1702 73.3067 33.6208 71.8133 35.0715 70.192C37.8875 67.12 40.6608 63.8773 43.3915 60.464C46.1222 57.0507 48.7675 53.552 51.3275 49.968L58.4955 39.728C60.7995 36.4853 62.8902 33.5413 64.7675 30.896C66.7302 28.2507 68.3942 26.0747 69.7595 24.368C70.4422 23.4293 71.2528 22.4907 72.1915 21.552C73.1302 20.6133 74.3675 20.144 75.9035 20.144C77.8662 20.144 79.1888 20.6987 79.8715 21.808C80.6395 22.832 81.0235 24.0693 81.0235 25.52C81.0235 27.4827 80.5542 29.1893 79.6155 30.64C78.5915 32.6027 77.4822 34.6933 76.2875 36.912C75.1782 39.0453 73.8982 41.3493 72.4475 43.824C69.7168 48.6027 66.8155 53.6373 63.7435 58.928C60.7568 64.1333 57.7702 69.5093 54.7835 75.056C53.2475 77.7867 51.7542 80.5173 50.3035 83.248C48.9382 85.9787 47.5728 88.624 46.2075 91.184C43.5622 96.4747 41.3008 101.552 39.4235 106.416C37.5462 111.28 36.1808 115.717 35.3275 119.728C34.9862 121.264 34.6875 122.672 34.4315 123.952C34.2608 125.232 34.1328 126.427 34.0475 127.536L33.9195 130.224C33.8342 130.224 33.9622 129.968 34.3035 129.456C34.7302 128.944 35.0288 128.517 35.1995 128.176C36.8208 125.104 39.1675 119.941 42.2395 112.688L46.8475 101.68C48.5542 97.7547 50.2182 93.8293 51.8395 89.904C53.5462 85.8933 55.2102 82.096 56.8315 78.512C57.8555 76.208 59.1355 73.4773 60.6715 70.32C62.2075 67.1627 63.9142 63.8773 65.7915 60.464C67.7542 56.9653 69.7595 53.5947 71.8075 50.352C73.8555 47.1093 75.8182 44.2507 77.6955 41.776C83.3275 34.096 88.7462 28.208 93.9515 24.112C99.1568 20.016 104.96 17.6693 111.36 17.072C111.786 17.072 112.17 17.072 112.512 17.072C112.853 16.9867 113.194 16.944 113.536 16.944C118.912 16.944 123.264 18.6933 126.592 22.192C130.005 25.6907 131.712 30.384 131.712 36.272C131.712 40.5387 130.474 44.9333 128 49.456C125.61 53.8933 122.453 58.16 118.528 62.256C114.688 66.352 110.549 70.0213 106.112 73.264C100.394 77.1893 94.6342 80.3467 88.8315 82.736C83.0288 85.04 77.5248 86.448 72.3195 86.96C71.5515 87.0453 70.8262 87.1307 70.1435 87.216C69.5462 87.216 68.9062 87.216 68.2235 87.216C66.7728 87.216 65.4502 87.088 64.2555 86.832C62.1222 86.32 60.7142 85.808 60.0315 85.296C59.6048 85.04 59.2635 84.784 59.0075 84.528L57.5995 88.624L51.3275 106.672C50.6448 108.635 49.9195 110.555 49.1515 112.432C48.3835 114.309 47.6155 116.144 46.8475 117.936C43.1782 126.128 39.8502 131.077 36.8635 132.784C35.4128 133.723 33.7915 134.192 31.9995 134.192ZM60.9275 83.12C61.7808 83.5467 63.0608 83.76 64.7675 83.76C65.6208 83.76 66.5595 83.7173 67.5835 83.632C68.6075 83.4613 69.7168 83.3333 70.9115 83.248C74.2395 82.9067 77.7382 81.84 81.4075 80.048C85.0768 78.1707 88.7035 75.952 92.2875 73.392C95.8715 70.832 99.1568 68.272 102.144 65.712C103.168 64.8587 104.533 63.4933 106.24 61.616C107.946 59.7387 109.738 57.5627 111.616 55.088C113.493 52.6133 115.242 50.096 116.864 47.536C118.57 44.8907 119.978 42.416 121.088 40.112C123.136 36.016 124.16 32.56 124.16 29.744C124.16 24.368 121.216 21.68 115.328 21.68C113.194 21.68 110.762 22.064 108.032 22.832C104.789 23.856 101.632 25.392 98.5595 27.44C95.4875 29.488 92.7568 31.8773 90.3675 34.608C84.3088 41.4347 78.9328 48.3467 74.2395 55.344C69.6315 62.3413 65.5782 69.4667 62.0795 76.72C61.2262 78.3413 60.3728 80.3893 59.5195 82.864H59.6475C59.8182 82.864 59.9888 82.9067 60.1595 82.992C60.4155 82.992 60.6715 83.0347 60.9275 83.12Z" fill="white"/>
</svg>
